HIERARCHY
ROOT Hips
{
	OFFSET -3.958830 18.904000 13.208200
	CHANNELS 6 Xposition Yposition Zposition Zrotation Yrotation Xrotation 
	JOINT LHipJoint
	{
		OFFSET 0.000000 0.000000 0.000000
		CHANNELS 3 Zrotation Yrotation Xrotation
		JOINT LeftUpLeg
		{
			OFFSET 1.800000 -1.400000 0.085000
			CHANNELS 3 Zrotation Yrotation Xrotation
			JOINT LeftLeg
			{
				OFFSET 2.215000 -6.000000 0.000000
				CHANNELS 3 Zrotation Yrotation Xrotation
				JOINT LeftFoot
				{
					OFFSET 2.500000 -6.900000 0.000000
					CHANNELS 3 Zrotation Yrotation Xrotation
					JOINT LeftToeBase
					{
						OFFSET 0.200000 -0.500000 1.950000
						CHANNELS 3 Zrotation Yrotation Xrotation
						End Site
						{
							OFFSET 0.000000 0.000000 0.000000
						}
					}
				}
			}
		}
	}
	JOINT RHipJoint
	{
		OFFSET 0.000000 0.000000 0.000000
		CHANNELS 3 Zrotation Yrotation Xrotation
		JOINT RightUpLeg
		{
			OFFSET -1.800000 -1.400000 0.085000
			CHANNELS 3 Zrotation Yrotation Xrotation
			JOINT RightLeg
			{
				OFFSET -2.215000 -6.000000 0.000000
				CHANNELS 3 Zrotation Yrotation Xrotation
				JOINT RightFoot
				{
					OFFSET -2.500000 -6.900000 0.000000
					CHANNELS 3 Zrotation Yrotation Xrotation
					JOINT RightToeBase
					{
						OFFSET -0.200000 -0.500000 1.950000
						CHANNELS 3 Zrotation Yrotation Xrotation
						End Site
						{
							OFFSET 0.000000 0.000000 0.000000
						}
					}
				}
			}
		}
	}
	JOINT LowerBack
	{
		OFFSET 0.000000 0.000000 0.000000
		CHANNELS 3 Zrotation Yrotation Xrotation
		JOINT Spine
		{
			OFFSET -0.087000 1.940000 -0.288900
			CHANNELS 3 Zrotation Yrotation Xrotation
			JOINT Spine1
			{
				OFFSET 0.000000 1.950000 0.060000
				CHANNELS 3 Zrotation Yrotation Xrotation
				JOINT Neck
				{
					OFFSET 0.000000 0.000000 0.000000
					CHANNELS 3 Zrotation Yrotation Xrotation
					JOINT Neck1
					{
						OFFSET 0.000000 1.600000 0.340000
						CHANNELS 3 Zrotation Yrotation Xrotation
						JOINT Head
						{
							OFFSET 0.000000 1.667000 -0.240000
							CHANNELS 3 Zrotation Yrotation Xrotation
							End Site
							{
								OFFSET 0.000000 0.000000 0.000000
							}
						}
					}
				}
				JOINT LeftShoulder
				{
					OFFSET 0.000000 0.000000 0.000000
					CHANNELS 3 Zrotation Yrotation Xrotation
					JOINT LeftArm
					{
						OFFSET 2.700000 1.550000 -0.730000
						CHANNELS 3 Zrotation Yrotation Xrotation
						JOINT LeftForeArm
						{
							OFFSET 5.450000 0.000000 0.000000
							CHANNELS 3 Zrotation Yrotation Xrotation
							JOINT LeftHand
							{
								OFFSET 3.450000 0.000000 0.000000
								CHANNELS 3 Zrotation Yrotation Xrotation
								JOINT LeftHandIndex1
								{
									OFFSET 0.750000 0.000000 0.000000
									CHANNELS 3 Zrotation Yrotation Xrotation
									End Site
									{
										OFFSET 0.000000 0.000000 0.000000
									}
								}
							}
						}
					}
				}
				JOINT RightShoulder
				{
					OFFSET 0.000000 0.000000 0.000000
					CHANNELS 3 Zrotation Yrotation Xrotation
					JOINT RightArm
					{
						OFFSET -2.700000 1.550000 -0.730000
						CHANNELS 3 Zrotation Yrotation Xrotation
						JOINT RightForeArm
						{
							OFFSET -5.450000 0.000000 0.000000
							CHANNELS 3 Zrotation Yrotation Xrotation
							JOINT RightHand
							{
								OFFSET -3.450000 0.000000 0.000000
								CHANNELS 3 Zrotation Yrotation Xrotation
								JOINT RightHandIndex1
								{
									OFFSET -0.750000 0.000000 0.000000
									CHANNELS 3 Zrotation Yrotation Xrotation
									End Site
									{
										OFFSET 0.000000 0.000000 0.000000
									}
								}
							}
						}
					}
				}
			}
		}
	}
}
MOTION
Frames: 14
Frame Time: 0.016667
-1.360360 16.505740 -1.317970 -16.606310 -25.648033 4.524078 -15.607002 10.639202 4.501716 17.579383 -6.029225 -38.179901 -21.295407 13.488899 29.417788 -0.373650 7.976805 1.626443 0.241530 0.167080 -0.208340 18.365168 -7.268792 4.953488 3.776357 15.986537 -40.411413 32.203379 -40.162741 70.490597 -3.534524 -15.860022 0.045893 0.140210 0.486410 -0.103000 -3.565774 -3.324272 -9.494467 0.022116 -4.692221 36.139138 -11.253007 -1.242664 12.342406 1.520996 -9.943257 -12.457630 -27.328090 16.976265 37.755217 2.548660 7.850590 -19.123740 -11.446505 0.739228 3.046326 -32.476787 -1.644262 -3.823840 157.893307 -37.730105 -145.402656 -3.753349 2.793737 0.856540 0.086610 -0.118500 0.264020 8.588721 4.681978 8.081225 43.100278 -14.406036 -17.061967 126.248420 56.745424 70.226677 1.773680 -1.449778 -0.500560 0.693730 0.266710 -0.176200 
-1.386620 16.448970 -1.340370 -17.733997 -25.198227 2.084523 -15.608506 10.697051 4.431906 18.533938 -6.024709 -36.914277 -20.758693 14.243812 31.991806 -0.365588 8.469752 1.422054 0.238190 0.102540 -0.145740 18.341939 -7.227957 5.013833 3.486166 16.011650 -40.415672 32.610022 -43.731414 73.918770 -3.810487 -16.732256 -0.172210 0.100840 0.429230 -0.047680 -3.514205 -3.371937 -9.557524 -1.250517 -4.729933 41.090056 -10.760503 -1.648327 12.091846 1.895619 -9.559495 -12.132452 -25.976016 15.804215 38.747012 1.078270 7.717130 -22.751230 -12.462080 -0.290846 2.619882 -32.227827 -1.633509 -5.421561 157.659746 -38.332872 -146.850474 -3.740325 2.781841 0.950340 0.048010 -0.073940 0.204370 8.885256 5.394271 8.159759 41.422949 -13.968342 -17.439342 131.703302 56.725717 76.667267 1.748795 -1.383578 -0.505070 0.663420 0.308140 -0.232220 
-1.421790 16.314430 -1.366330 -18.870450 -24.789144 -0.568787 -15.645262 10.564624 4.482080 20.160371 -6.469284 -36.914492 -20.202279 15.820192 36.652006 -0.277085 9.367503 1.085989 0.219140 0.068410 -0.150330 18.316649 -7.009718 5.132778 2.697269 16.495463 -42.947235 31.432524 -49.393952 81.291608 -4.249841 -18.378295 -0.517775 0.100710 0.417080 -0.032840 -3.466773 -3.417906 -9.707178 -3.895793 -4.795768 47.149861 -10.204233 -2.898358 10.569102 2.026401 -9.346255 -11.344601 -24.019595 15.550883 37.518304 1.184070 7.851010 -25.685370 -13.381066 -0.582692 2.053497 -32.778700 -0.619022 -8.231982 155.012708 -41.242154 -144.726823 -3.737584 2.767613 0.998560 0.027220 -0.066850 0.167200 9.649513 5.378611 7.670064 37.222004 -12.975660 -16.478735 137.796341 56.692094 85.533922 1.702612 -1.339378 -0.530600 0.669000 0.357010 -0.255670 
-1.451120 16.174580 -1.380100 -20.091389 -24.551170 -3.147639 -15.628087 10.208587 4.637761 22.529914 -6.804701 -37.258839 -20.669936 18.312072 41.752688 -0.087986 10.629145 0.702828 0.164930 -0.035740 -0.187420 18.356865 -6.847006 5.224889 1.417836 17.182591 -45.651484 28.479401 -54.468254 89.735396 -4.650495 -20.067695 -0.815054 0.086430 0.488950 -0.064600 -3.651856 -3.009241 -9.883239 -5.124582 -5.261841 53.239049 -10.719213 -4.225985 7.879392 2.075198 -9.571883 -10.814141 -23.234303 16.115663 35.165965 2.949990 7.429220 -25.310310 -14.417357 -0.983318 1.529729 -32.555980 0.140635 -10.201763 152.328853 -45.894816 -143.418772 -3.758309 2.726433 1.027490 0.035790 -0.131390 0.160100 10.745137 5.461274 7.541010 33.704800 -13.105436 -15.500613 145.213886 56.136421 96.581008 1.634883 -1.327417 -0.614450 0.731560 0.412930 -0.270740 
-1.487020 16.049570 -1.361830 -20.835991 -24.452438 -4.493356 -15.591455 9.805612 4.778935 23.465146 -7.349914 -39.104854 -18.900982 20.419293 48.196363 -0.045872 11.860044 0.276532 0.027360 -0.289330 -0.201740 18.416886 -6.713077 5.375615 -1.724576 17.705683 -49.142462 24.854880 -58.528589 97.941907 -4.956586 -21.566700 -1.109875 0.015510 0.528370 -0.086800 -3.906696 -2.439694 -10.071325 -5.448832 -6.066207 56.099741 -12.689149 -5.203139 6.759023 2.517875 -9.213960 -11.133499 -22.356534 17.533085 36.410001 2.965410 7.638450 -25.938470 -16.406492 -3.757165 1.726866 -30.259757 3.142281 -12.846066 144.871819 -56.074955 -138.906420 -3.827364 2.587967 1.161630 0.033810 -0.196720 0.040450 11.978213 7.323200 8.380056 33.194665 -13.549475 -15.916534 152.413085 56.244167 108.561101 1.553796 -1.164844 -0.767970 0.794860 0.581920 -0.373160 
-1.472410 15.973040 -1.307170 -22.808423 -24.272198 -6.190535 -15.398532 9.501461 4.675386 23.717794 -7.761586 -38.897859 -15.480214 20.818036 53.966631 -0.019229 12.573265 -0.022093 0.061550 -0.355690 -0.170670 18.605679 -7.044059 5.442801 -3.926436 17.509070 -49.805798 20.289112 -57.600911 102.729938 -5.021744 -22.065551 -1.331007 0.025910 0.479330 -0.044580 -4.557787 -1.194348 -10.035637 -2.626333 -9.412067 59.484733 -16.383605 -7.565454 5.785889 2.280991 -10.088752 -11.307455 -24.798853 19.788455 36.154408 7.190090 6.050470 -26.448120 -18.854629 -7.143714 2.545140 -27.174143 4.345712 -13.374332 129.101958 -59.960907 -118.626842 -3.869866 2.380574 1.255510 -0.058770 -0.189730 0.005440 15.054261 9.625370 8.702704 30.911025 -12.741808 -15.997708 159.610151 56.935965 122.347263 1.530303 -1.160504 -0.791570 0.745200 0.638860 -0.408360 
-1.475180 15.939110 -1.273770 -23.275376 -24.043359 -7.634982 -15.324193 9.473816 4.579757 23.455007 -8.080977 -38.091432 -14.241462 20.812829 56.099261 -0.084638 12.859339 -0.120253 0.125510 -0.309830 -0.161650 18.713507 -7.255219 5.411487 -6.245494 16.992529 -50.121381 17.954320 -51.363838 100.576027 -4.663965 -20.960794 -1.232720 0.122420 0.513180 -0.105650 -4.841242 -0.710146 -9.914162 -1.711232 -11.167872 62.069832 -17.099711 -9.528703 3.948526 1.139459 -11.636685 -10.692172 -30.695886 22.843256 32.865432 10.287800 3.189020 -27.184600 -20.143504 -9.075746 2.094111 -28.399023 1.616392 -14.972207 93.832021 -60.873044 -66.836834 -3.706490 1.061743 1.295760 -0.107240 -0.219650 0.028540 18.656587 10.938782 8.092242 26.637079 -9.439252 -14.793868 167.009245 57.745053 138.202065 1.471533 -1.154704 -0.858860 0.873160 0.659320 -0.399500 
-1.469630 15.914350 -1.251950 -23.781677 -23.978660 -7.324080 -15.336835 9.499560 4.723546 23.809226 -8.353608 -38.942278 -14.011412 20.888453 56.938123 -0.065653 12.918870 -0.165224 0.252220 -0.125790 -0.117030 18.760138 -7.397242 5.215626 -7.645755 15.829613 -50.186951 16.822943 -41.563976 92.183520 -3.982715 -18.534712 -0.877696 0.227590 0.463000 -0.110580 -4.863293 -0.676139 -9.842902 -0.987107 -11.936922 61.562002 -16.574474 -9.436009 4.130845 0.374622 -11.832648 -10.817196 -34.023494 23.742549 32.834764 11.298030 1.241710 -27.465400 -21.149503 -11.933614 2.286334 -28.606107 -2.584244 -13.947966 58.000385 -53.390361 -31.915755 -3.554809 1.897933 1.264680 -0.140890 -0.171680 0.065890 21.267550 12.901835 7.920778 22.867938 -8.197187 -14.696246 174.618310 58.452159 152.964112 1.442479 -1.241050 -0.793560 0.887070 0.588640 -0.360480 
-1.487910 15.881760 -1.250510 -22.698236 -23.080814 -7.732366 -15.371856 9.631321 5.041158 23.680695 -9.426453 -40.061188 -15.385395 21.635366 57.493079 0.101792 13.124066 -0.194334 0.254310 -0.073600 -0.093200 18.740356 -7.570690 4.849070 -7.693255 13.986975 -48.861450 13.905375 -31.432805 83.031174 -3.145419 -15.722812 -0.335380 0.229060 0.446210 -0.126040 -4.664537 -0.914291 -9.814870 -3.158248 -11.052942 61.298624 -15.328927 -9.087487 4.151641 0.278499 -10.975417 -11.550583 -31.930386 23.293726 34.936337 10.055360 2.132800 -24.449070 -22.205523 -14.978744 3.196810 -24.333770 -5.317269 -9.740624 34.677832 -36.856915 -12.984321 -3.647998 2.319269 1.185360 -0.101720 -0.165450 0.062210 22.556894 15.419659 8.330430 20.446546 -8.603763 -15.403133 -179.413375 60.134459 164.064904 1.435299 -1.304857 -0.748360 0.852580 0.533260 -0.346310 
-1.498980 15.823880 -1.251720 -21.333940 -23.048999 -8.741927 -15.335502 9.914515 5.367462 23.169301 -10.276979 -40.457828 -16.389682 22.252434 58.185749 0.388666 13.327115 -0.119281 0.089680 -0.186540 -0.148580 18.714278 -8.084978 4.277418 -6.290741 11.899138 -45.180336 9.805911 -20.465722 69.431184 -2.023168 -11.902341 0.642198 0.103630 0.517710 -0.184680 -4.548714 -0.804619 -9.677842 -5.381834 -10.047321 62.300439 -14.473802 -9.467105 1.796336 0.883625 -10.191932 -12.357983 -28.134307 22.650632 36.208779 6.218600 5.167510 -19.634000 -24.574463 -16.966572 4.466959 -16.941101 -5.165999 -4.796922 17.271201 -18.709395 -3.659013 -3.776347 2.296301 1.060240 -0.003610 -0.209130 0.050100 23.623174 17.841894 8.502227 16.735490 -8.392432 -15.620085 -176.778845 63.287348 170.195134 1.491064 -1.276698 -0.748690 0.856540 0.512110 -0.313570 
-1.489000 15.802350 -1.273770 -19.829997 -23.039929 -9.448654 -15.254227 10.320136 5.660496 21.967015 -10.851519 -40.380179 -17.511493 22.192883 57.124320 0.579019 13.206169 -0.000099 -0.110080 -0.401810 -0.244330 18.672290 -8.781384 3.631825 -4.923329 9.258746 -41.412080 3.991679 -11.188752 53.564921 -0.917875 -7.823953 1.871887 -0.101030 0.567380 -0.172790 -4.436406 -0.643192 -9.439419 -7.231889 -8.698986 64.243556 -12.858468 -9.812063 -1.977790 1.706228 -9.239529 -13.654430 -25.153016 22.071125 37.791459 3.520840 7.870580 -15.267080 -25.451641 -18.063592 5.670555 -13.658934 -3.757372 -1.512287 4.343125 -7.349505 -1.294013 -3.838158 2.107785 0.995480 0.058130 -0.240880 0.013030 22.835001 19.538625 8.656314 14.891353 -8.316521 -16.035358 -173.550791 67.865935 177.181568 1.554380 -1.236462 -0.724190 0.773160 0.549570 -0.287380 
-1.489840 15.765320 -1.268920 -17.896560 -23.236984 -8.678451 -15.236487 10.611662 6.108477 20.608353 -11.530971 -42.436649 -18.151048 22.692999 57.768767 0.783413 13.336434 -0.013647 -0.162190 -0.455210 -0.270940 18.594156 -9.270454 2.983618 -4.094891 6.128457 -38.056772 0.560492 -5.815416 34.042658 -0.137266 -3.952743 3.193451 -0.207470 0.524200 -0.118320 -4.213152 -0.760427 -9.256844 -8.539029 -7.471994 61.860936 -12.033458 -9.332485 -3.226030 2.678507 -8.302853 -14.860783 -23.364323 21.578795 40.351377 0.897940 10.130830 -12.755410 -24.886851 -18.447496 6.458652 -14.159118 -2.700179 -0.055044 -3.769369 0.735261 -1.503232 -3.840990 2.019945 0.966950 0.066420 -0.203200 0.010900 20.408282 20.525127 8.812296 14.465314 -7.831994 -16.245913 -166.221136 74.049736 -172.041134 1.595884 -1.291399 -0.644290 0.646790 0.528390 -0.271010 
-1.438510 15.719050 -1.260950 -17.376581 -23.931378 -7.487964 -15.288432 10.702790 6.354730 20.630549 -11.237181 -44.007686 -19.906138 23.459599 56.847683 0.926642 13.344669 0.044839 -0.086970 -0.322420 -0.236340 18.526302 -9.241022 2.725079 -4.960877 4.690635 -35.630315 1.865443 -4.143928 19.220398 0.105223 -1.989553 3.970078 -0.187050 0.501370 -0.131950 -4.024688 -1.140359 -9.225085 -8.227851 -7.630596 59.117555 -11.718425 -9.237686 -1.825741 3.473376 -8.871429 -15.969135 -25.739889 21.670615 39.538547 -0.975910 10.303620 -14.542130 -23.353928 -18.123346 6.848222 -17.721186 -1.815019 0.332079 -6.559445 5.462573 -1.908308 -3.798032 1.990967 0.934760 0.044500 -0.143070 0.086220 17.600806 21.018717 9.672454 10.784623 -3.715681 -12.359536 -124.564617 77.723757 -126.120504 1.955727 -0.822471 -0.579090 0.679210 0.428690 -0.219420 
-1.423060 15.722810 -1.261920 -15.366163 -23.316510 -8.412180 -15.384619 10.992756 6.291058 18.515062 -11.458221 -43.602954 -20.163529 23.434198 56.334361 0.917067 13.187247 0.030575 0.008840 -0.198860 -0.194340 18.401435 -9.144298 2.622261 -7.601094 3.930148 -34.648577 2.845124 -3.955300 16.043880 0.102455 -1.843248 3.982514 -0.119840 0.407370 -0.103310 -3.632520 -1.828603 -9.161831 -10.063672 -5.444759 57.258317 -9.573792 -8.351961 -1.935094 3.687300 -9.439023 -15.009072 -27.292800 22.496952 40.599823 -1.417040 10.682220 -14.455560 -22.769974 -17.957540 8.188511 -21.648838 -0.127340 0.497423 -6.106840 7.561484 -1.904643 -3.734427 2.190213 0.922740 0.016190 -0.103910 0.088640 16.720958 23.043929 6.209672 6.002413 -4.027601 -17.449454 -19.733562 86.856894 -18.916545 1.454768 -0.842073 -0.515430 0.589810 0.378790 -0.227770 
